<svg width="32" height="32" viewBox="0 0 32 32" fill="none" xmlns="http://www.w3.org/2000/svg">
  <defs>
    <linearGradient id="gradient" x1="0%" y1="0%" x2="100%" y2="100%">
      <stop offset="0%" style="stop-color:#8B5CF6"/>
      <stop offset="50%" style="stop-color:#EC4899"/>
      <stop offset="100%" style="stop-color:#EAB308"/>
    </linearGradient>
  </defs>
  <path d="M16 4C9.373 4 4 9.373 4 16s5.373 12 12 12 12-5.373 12-12S22.627 4 16 4zm0 2c5.523 0 10 4.477 10 10s-4.477 10-10 10S6 21.523 6 16 10.477 6 16 6zm0 2a8 8 0 100 16 8 8 0 000-16zm0 2a6 6 0 110 12 6 6 0 010-12z" fill="url(#gradient)"/>
  <circle cx="16" cy="16" r="4" fill="url(#gradient)" opacity="0.8"/>
</svg>